<svg width="269" height="25" viewBox="0 0 269 25" fill="none" xmlns="http://www.w3.org/2000/svg">
<path d="M0.265051 24L3.74232 0.727272H20.106L19.3219 5.81818H9.27641L8.70823 9.81818H17.7537L16.981 14.9091H7.93551L6.58323 24H0.265051ZM22.1526 24L25.6298 0.727272H31.948L29.2435 18.9091H38.6526L37.8798 24H22.1526ZM50.756 0.727272L53.0741 17.1364H53.256L60.4832 0.727272H67.6196L56.4605 24H47.8241L43.6196 0.727272H50.756ZM84.5043 8C84.5573 7.25 84.3641 6.66288 83.9247 6.23864C83.4853 5.80682 82.7543 5.59091 81.7315 5.59091C81.08 5.59091 80.5384 5.66667 80.1065 5.81818C79.6747 5.9697 79.3414 6.17803 79.1065 6.44318C78.8717 6.70833 78.724 7.01515 78.6634 7.36364C78.6027 7.63636 78.6141 7.88636 78.6974 8.11364C78.7808 8.33333 78.9399 8.53409 79.1747 8.71591C79.4096 8.89773 79.7164 9.06061 80.0952 9.20455C80.4815 9.34848 80.9437 9.47727 81.4815 9.59091L83.2997 10C84.5497 10.2727 85.599 10.6326 86.4474 11.0795C87.3035 11.5189 87.9777 12.0417 88.4702 12.6477C88.9626 13.2538 89.2921 13.9318 89.4588 14.6818C89.633 15.4318 89.652 16.25 89.5156 17.1364C89.2808 18.6667 88.705 19.9621 87.7884 21.0227C86.8793 22.0833 85.6785 22.8902 84.1861 23.4432C82.6937 23.9962 80.9626 24.2727 78.9929 24.2727C76.9777 24.2727 75.2618 23.9735 73.8452 23.375C72.4361 22.7689 71.4058 21.8447 70.7543 20.6023C70.1103 19.3523 69.9323 17.7576 70.2202 15.8182H76.2202C76.1444 16.5303 76.2315 17.1288 76.4815 17.6136C76.7315 18.0985 77.1255 18.4659 77.6634 18.7159C78.2088 18.9659 78.883 19.0909 79.6861 19.0909C80.3679 19.0909 80.9474 19.0076 81.4247 18.8409C81.9096 18.6742 82.2884 18.4432 82.5611 18.1477C82.8414 17.8523 83.008 17.5152 83.0611 17.1364C83.1141 16.7879 83.0459 16.4773 82.8565 16.2045C82.6747 15.9318 82.3414 15.6856 81.8565 15.4659C81.3793 15.2462 80.724 15.0455 79.8906 14.8636L77.652 14.3636C75.6671 13.9091 74.1596 13.1591 73.1293 12.1136C72.1065 11.0682 71.7277 9.63636 71.9929 7.81818C72.2126 6.33333 72.8035 5.03788 73.7656 3.93182C74.7277 2.81818 75.9626 1.95454 77.4702 1.34091C78.9777 0.719696 80.6558 0.40909 82.5043 0.40909C84.383 0.40909 85.9626 0.723484 87.2429 1.35227C88.5232 1.98106 89.4512 2.86364 90.027 4C90.6027 5.13636 90.777 6.4697 90.5497 8H84.5043Z" fill="#002025"/>
<path d="M105.728 5.81818L106.512 0.727272H126.739L125.955 5.81818H118.955L116.262 24H110.035L112.728 5.81818H105.728ZM151.962 12.7273C151.583 15.2652 150.777 17.3939 149.542 19.1136C148.314 20.8333 146.807 22.1326 145.019 23.0114C143.231 23.8826 141.311 24.3182 139.258 24.3182C137.083 24.3182 135.186 23.8485 133.564 22.9091C131.951 21.9621 130.761 20.5795 129.996 18.7614C129.239 16.9356 129.057 14.7083 129.451 12.0795C129.822 9.54167 130.621 7.40909 131.849 5.68182C133.083 3.94697 134.599 2.63636 136.394 1.75C138.197 0.85606 140.133 0.40909 142.201 0.40909C144.36 0.40909 146.246 0.886363 147.86 1.84091C149.474 2.78788 150.659 4.17803 151.417 6.01136C152.182 7.8447 152.364 10.0833 151.962 12.7273ZM145.587 12.0795C145.777 10.7386 145.769 9.60985 145.564 8.69318C145.367 7.77652 144.97 7.08333 144.371 6.61364C143.78 6.14394 142.989 5.90909 141.996 5.90909C140.883 5.90909 139.902 6.18182 139.053 6.72727C138.205 7.26515 137.504 8.04167 136.951 9.05682C136.405 10.072 136.03 11.2955 135.826 12.7273C135.614 14.0833 135.614 15.2121 135.826 16.1136C136.046 17.0152 136.462 17.6932 137.076 18.1477C137.689 18.5947 138.485 18.8182 139.462 18.8182C140.561 18.8182 141.53 18.5568 142.371 18.0341C143.212 17.5038 143.902 16.7386 144.439 15.7386C144.985 14.7311 145.367 13.5114 145.587 12.0795ZM180.631 12.7273C180.252 15.2652 179.445 17.3939 178.211 19.1136C176.983 20.8333 175.476 22.1326 173.688 23.0114C171.9 23.8826 169.979 24.3182 167.926 24.3182C165.752 24.3182 163.854 23.8485 162.233 22.9091C160.62 21.9621 159.43 20.5795 158.665 18.7614C157.907 16.9356 157.726 14.7083 158.12 12.0795C158.491 9.54167 159.29 7.40909 160.517 5.68182C161.752 3.94697 163.267 2.63636 165.063 1.75C166.866 0.85606 168.801 0.40909 170.87 0.40909C173.029 0.40909 174.915 0.886363 176.529 1.84091C178.142 2.78788 179.328 4.17803 180.086 6.01136C180.851 7.8447 181.032 10.0833 180.631 12.7273ZM174.256 12.0795C174.445 10.7386 174.438 9.60985 174.233 8.69318C174.036 7.77652 173.639 7.08333 173.04 6.61364C172.449 6.14394 171.657 5.90909 170.665 5.90909C169.551 5.90909 168.57 6.18182 167.722 6.72727C166.873 7.26515 166.173 8.04167 165.62 9.05682C165.074 10.072 164.699 11.2955 164.495 12.7273C164.282 14.0833 164.282 15.2121 164.495 16.1136C164.714 17.0152 165.131 17.6932 165.745 18.1477C166.358 18.5947 167.154 18.8182 168.131 18.8182C169.229 18.8182 170.199 18.5568 171.04 18.0341C171.881 17.5038 172.57 16.7386 173.108 15.7386C173.654 14.7311 174.036 13.5114 174.256 12.0795ZM185.084 24L188.561 0.727272H194.879L192.175 18.9091H201.584L200.811 24H185.084ZM206.565 24L210.042 0.727272H216.361L214.963 10.1364H215.281L223.679 0.727272H231.042L221.667 11.0909L227.747 24H220.201L216.326 15.2727L213.781 18.0455L212.883 24H206.565ZM242.436 0.727272L238.958 24H232.64L236.117 0.727272H242.436ZM247.209 5.81818L247.993 0.727272H268.221L267.437 5.81818H260.437L257.743 24H251.516L254.209 5.81818H247.209Z" fill="#002525" fill-opacity="0.333333"/>
<path d="M0.265051 24L-0.72397 23.8522L-0.895464 25H0.265051V24ZM3.74232 0.727272V-0.272728H2.88064L2.7533 0.579498L3.74232 0.727272ZM20.106 0.727272L21.0943 0.879495L21.2718 -0.272728H20.106V0.727272ZM19.3219 5.81818V6.81818H20.1796L20.3102 5.97041L19.3219 5.81818ZM9.27641 5.81818V4.81818H8.40842L8.28635 5.67755L9.27641 5.81818ZM8.70823 9.81818L7.71817 9.67755L7.55615 10.8182H8.70823V9.81818ZM17.7537 9.81818L18.7424 9.96825L18.9169 8.81818H17.7537V9.81818ZM16.981 14.9091V15.9091H17.8406L17.9696 15.0592L16.981 14.9091ZM7.93551 14.9091V13.9091H7.07325L6.94639 14.762L7.93551 14.9091ZM6.58323 24V25H7.44549L7.57235 24.1471L6.58323 24ZM1.25407 24.1478L4.73134 0.875046L2.7533 0.579498L-0.72397 23.8522L1.25407 24.1478ZM3.74232 1.72727H20.106V-0.272728H3.74232V1.72727ZM19.1176 0.575049L18.3335 5.66596L20.3102 5.97041L21.0943 0.879495L19.1176 0.575049ZM19.3219 4.81818H9.27641V6.81818H19.3219V4.81818ZM8.28635 5.67755L7.71817 9.67755L9.69829 9.95881L10.2665 5.95882L8.28635 5.67755ZM8.70823 10.8182H17.7537V8.81818H8.70823V10.8182ZM16.765 9.66811L15.9923 14.759L17.9696 15.0592L18.7424 9.96825L16.765 9.66811ZM16.981 13.9091H7.93551V15.9091H16.981V13.9091ZM6.94639 14.762L5.59412 23.8529L7.57235 24.1471L8.92462 15.0562L6.94639 14.762ZM6.58323 23H0.265051V25H6.58323V23ZM22.1526 24L21.1635 23.8522L20.992 25H22.1526V24ZM25.6298 0.727272V-0.272728H24.7681L24.6408 0.579498L25.6298 0.727272ZM31.948 0.727272L32.9371 0.874403L33.1078 -0.272728H31.948V0.727272ZM29.2435 18.9091L28.2544 18.762L28.0837 19.9091H29.2435V18.9091ZM38.6526 18.9091L39.6412 19.0592L39.8158 17.9091H38.6526V18.9091ZM37.8798 24V25H38.7395L38.8685 24.1501L37.8798 24ZM23.1416 24.1478L26.6189 0.875046L24.6408 0.579498L21.1635 23.8522L23.1416 24.1478ZM25.6298 1.72727H31.948V-0.272728H25.6298V1.72727ZM30.9589 0.580141L28.2544 18.762L30.2326 19.0562L32.9371 0.874403L30.9589 0.580141ZM29.2435 19.9091H38.6526V17.9091H29.2435V19.9091ZM37.6639 18.759L36.8912 23.8499L38.8685 24.1501L39.6412 19.0592L37.6639 18.759ZM37.8798 23H22.1526V25H37.8798V23ZM50.756 0.727272L51.7461 0.587387L51.6246 -0.272728H50.756V0.727272ZM53.0741 17.1364L52.084 17.2762L52.2055 18.1364H53.0741V17.1364ZM53.256 17.1364V18.1364H53.9082L54.1711 17.5394L53.256 17.1364ZM60.4832 0.727272V-0.272728H59.831L59.5681 0.324194L60.4832 0.727272ZM67.6196 0.727272L68.5213 1.15963L69.2081 -0.272728H67.6196V0.727272ZM56.4605 24V25H57.09L57.3622 24.4324L56.4605 24ZM47.8241 24L46.8401 24.1778L46.9886 25H47.8241V24ZM43.6196 0.727272V-0.272728H42.4227L42.6355 0.905058L43.6196 0.727272ZM49.7658 0.867157L52.084 17.2762L54.0643 16.9965L51.7461 0.587387L49.7658 0.867157ZM53.0741 18.1364H53.256V16.1364H53.0741V18.1364ZM54.1711 17.5394L61.3984 1.13035L59.5681 0.324194L52.3408 16.7333L54.1711 17.5394ZM60.4832 1.72727H67.6196V-0.272728H60.4832V1.72727ZM66.7179 0.294913L55.5588 23.5676L57.3622 24.4324L68.5213 1.15963L66.7179 0.294913ZM56.4605 23H47.8241V25H56.4605V23ZM48.8082 23.8222L44.6037 0.549486L42.6355 0.905058L46.8401 24.1778L48.8082 23.8222ZM43.6196 1.72727H50.756V-0.272728H43.6196V1.72727ZM84.5043 8L83.5068 7.92947L83.4311 9H84.5043V8ZM83.9247 6.23864L83.2238 6.95189L83.2301 6.95804L83.9247 6.23864ZM80.1065 5.81818L80.4376 6.76178L80.4376 6.76178L80.1065 5.81818ZM79.1065 6.44318L79.8551 7.10622L79.8551 7.10622L79.1065 6.44318ZM78.6634 7.36364L79.6395 7.58057L79.6446 7.55788L79.6486 7.53498L78.6634 7.36364ZM78.6974 8.11364L77.7585 8.45791L77.7624 8.46829L78.6974 8.11364ZM79.1747 8.71591L78.5625 9.50663L78.5625 9.50663L79.1747 8.71591ZM80.0952 9.20455L79.7399 10.1393L79.7461 10.1416L80.0952 9.20455ZM81.4815 9.59091L81.7011 8.61522L81.6882 8.61251L81.4815 9.59091ZM83.2997 10L83.0802 10.9756L83.0865 10.977L83.2997 10ZM86.4474 11.0795L85.9813 11.9643L85.9908 11.9692L86.4474 11.0795ZM89.4588 14.6818L88.4826 14.8988L88.4847 14.9081L89.4588 14.6818ZM89.5156 17.1364L88.5273 16.9843L88.5272 16.9847L89.5156 17.1364ZM87.7884 21.0227L87.0318 20.3688L87.0291 20.3719L87.7884 21.0227ZM84.1861 23.4432L83.8386 22.5055L83.8386 22.5055L84.1861 23.4432ZM73.8452 23.375L73.4501 24.2937L73.456 24.2962L73.8452 23.375ZM70.7543 20.6023L69.8653 21.0602L69.8686 21.0667L70.7543 20.6023ZM70.2202 15.8182V14.8182H69.3577L69.231 15.6714L70.2202 15.8182ZM76.2202 15.8182L77.2146 15.924L77.3322 14.8182H76.2202V15.8182ZM76.4815 17.6136L77.3703 17.1553L77.3703 17.1553L76.4815 17.6136ZM77.6634 18.7159L77.2419 19.6228L77.2467 19.625L77.6634 18.7159ZM81.4247 18.8409L81.0996 17.8952L81.095 17.8968L81.4247 18.8409ZM82.5611 18.1477L81.8355 17.4594L81.8263 17.4694L82.5611 18.1477ZM83.0611 17.1364L82.0724 16.9859L82.0707 16.9977L83.0611 17.1364ZM82.8565 16.2045L82.0245 16.7592L82.0298 16.7671L82.0352 16.7749L82.8565 16.2045ZM81.8565 15.4659L81.4384 16.3743L81.4438 16.3768L81.8565 15.4659ZM79.8906 14.8636L79.6726 15.8396L79.6775 15.8407L79.8906 14.8636ZM77.652 14.3636L77.4288 15.3384L77.434 15.3396L77.652 14.3636ZM73.1293 12.1136L72.4144 12.8129L72.417 12.8156L73.1293 12.1136ZM71.9929 7.81818L71.0037 7.67182L71.0034 7.67388L71.9929 7.81818ZM73.7656 3.93182L74.5201 4.58813L74.5223 4.58557L73.7656 3.93182ZM77.4702 1.34091L77.8472 2.26713L77.8512 2.26549L77.4702 1.34091ZM87.2429 1.35227L87.6837 0.454681L87.6837 0.454681L87.2429 1.35227ZM90.027 4L89.135 4.45196L89.135 4.45196L90.027 4ZM90.5497 8V9H91.4122L91.5389 8.1469L90.5497 8ZM85.5018 8.07053C85.5704 7.09991 85.32 6.1958 84.6193 5.51923L83.2301 6.95804C83.4082 7.12996 83.5442 7.40009 83.5068 7.92947L85.5018 8.07053ZM84.6256 5.52541C83.9083 4.82043 82.8529 4.59091 81.7315 4.59091V6.59091C82.6556 6.59091 83.0623 6.7932 83.2238 6.95186L84.6256 5.52541ZM81.7315 4.59091C81.011 4.59091 80.3483 4.67357 79.7754 4.87458L80.4376 6.76178C80.7284 6.65976 81.149 6.59091 81.7315 6.59091V4.59091ZM79.7754 4.87458C79.2286 5.06646 78.7341 5.35548 78.3579 5.78015L79.8551 7.10622C79.9487 7.00058 80.1209 6.87293 80.4376 6.76178L79.7754 4.87458ZM78.3579 5.78015C78.0003 6.18389 77.7706 6.66088 77.6781 7.1923L79.6486 7.53498C79.6774 7.36942 79.743 7.23278 79.8551 7.10622L78.3579 5.78015ZM77.6872 7.1467C77.5916 7.57676 77.5997 8.02461 77.7586 8.45789L79.6363 7.76938C79.6285 7.74812 79.6139 7.69597 79.6395 7.58057L77.6872 7.1467ZM77.7624 8.46829C77.9263 8.90038 78.22 9.24147 78.5625 9.50663L79.7869 7.92519C79.6597 7.82672 79.6352 7.76628 79.6324 7.75898L77.7624 8.46829ZM78.5625 9.50663C78.898 9.76637 79.3 9.97215 79.74 10.1393L80.4504 8.26976C80.1328 8.14906 79.9211 8.02909 79.7869 7.92518L78.5625 9.50663ZM79.7461 10.1416C80.1912 10.3074 80.7034 10.4486 81.2748 10.5693L81.6882 8.61251C81.1839 8.50595 80.7719 8.38952 80.4443 8.26746L79.7461 10.1416ZM81.262 10.5665L83.0802 10.9756L83.5192 9.02439L81.701 8.6153L81.262 10.5665ZM83.0865 10.977C84.2759 11.2365 85.2341 11.5707 85.9814 11.9643L86.9135 10.1948C85.9638 9.69449 84.8236 9.30895 83.5129 9.02298L83.0865 10.977ZM85.9908 11.9692C86.7514 12.3596 87.3068 12.8017 87.6941 13.2783L89.2463 12.0171C88.6487 11.2816 87.8556 10.6783 86.9041 10.1899L85.9908 11.9692ZM87.6941 13.2783C88.0902 13.7659 88.3502 14.3029 88.4826 14.8987L90.435 14.4649C90.2341 13.5608 89.8349 12.7416 89.2463 12.0171L87.6941 13.2783ZM88.4847 14.9081C88.6258 15.5154 88.6474 16.2034 88.5273 16.9843L90.504 17.2884C90.6566 16.2966 90.6403 15.3482 90.4329 14.4555L88.4847 14.9081ZM88.5272 16.9847C88.3178 18.3492 87.8128 19.4651 87.0318 20.3688L88.5449 21.6766C89.5972 20.4591 90.2438 18.9842 90.5041 17.2881L88.5272 16.9847ZM87.0291 20.3719C86.2453 21.2864 85.1941 22.0032 83.8386 22.5055L84.5335 24.3809C86.1629 23.7771 87.5132 22.8803 88.5476 21.6735L87.0291 20.3719ZM83.8386 22.5055C82.4803 23.0088 80.8711 23.2727 78.9929 23.2727V25.2727C81.054 25.2727 82.907 24.9836 84.5335 24.3809L83.8386 22.5055ZM78.9929 23.2727C77.0719 23.2727 75.4961 22.9869 74.2343 22.4538L73.456 24.2962C75.0276 24.9601 76.8835 25.2727 78.9929 25.2727V23.2727ZM74.2403 22.4564C73.0209 21.9319 72.1747 21.1577 71.6399 20.1379L69.8686 21.0667C70.6369 22.5317 71.8512 23.606 73.4501 24.2936L74.2403 22.4564ZM71.6432 20.1443C71.1264 19.141 70.9404 17.7767 71.2093 15.965L69.231 15.6714C68.9242 17.7384 69.0943 19.5636 69.8653 21.0602L71.6432 20.1443ZM70.2202 16.8182H76.2202V14.8182H70.2202V16.8182ZM75.2258 15.7124C75.1357 16.559 75.2291 17.3667 75.5927 18.0719L77.3703 17.1553C77.234 16.8909 77.1531 16.5016 77.2146 15.924L75.2258 15.7124ZM75.5927 18.0719C75.9535 18.7716 76.5214 19.2879 77.2419 19.6227L78.0848 17.8091C77.7295 17.6439 77.5096 17.4254 77.3703 17.1553L75.5927 18.0719ZM77.2467 19.625C77.9592 19.9515 78.7854 20.0909 79.6861 20.0909V18.0909C78.9807 18.0909 78.4584 17.9803 78.08 17.8068L77.2467 19.625ZM79.6861 20.0909C80.4436 20.0909 81.1414 19.9991 81.7544 19.785L81.095 17.8968C80.7535 18.0161 80.2922 18.0909 79.6861 18.0909V20.0909ZM81.7498 19.7866C82.3492 19.5805 82.8841 19.2721 83.2959 18.826L81.8263 17.4694C81.6926 17.6143 81.4699 17.7679 81.0996 17.8952L81.7498 19.7866ZM83.2865 18.836C83.7004 18.3998 83.9676 17.8738 84.0514 17.275L82.0707 16.9977C82.0485 17.1565 81.9824 17.3048 81.8356 17.4595L83.2865 18.836ZM84.0497 17.2868C84.1386 16.7026 84.0228 16.1308 83.6779 15.6342L82.0352 16.7749C82.0691 16.8238 82.0896 16.8731 82.0725 16.9859L84.0497 17.2868ZM83.6886 15.6498C83.357 15.1525 82.8285 14.8085 82.2693 14.5551L81.4438 16.3768C81.8543 16.5628 81.9924 16.7111 82.0245 16.7592L83.6886 15.6498ZM82.2747 14.5575C81.704 14.2949 80.9699 14.0756 80.1038 13.8866L79.6775 15.8407C80.478 16.0153 81.0545 16.1976 81.4384 16.3743L82.2747 14.5575ZM80.1086 13.8877L77.87 13.3877L77.434 15.3396L79.6726 15.8396L80.1086 13.8877ZM77.8752 13.3889C76.0069 12.961 74.6958 12.2785 73.8415 11.4117L72.417 12.8156C73.6233 14.0396 75.3274 14.8572 77.4288 15.3384L77.8752 13.3889ZM73.8441 11.4143C73.0946 10.6482 72.7496 9.55936 72.9824 7.96249L71.0034 7.67388C70.7059 9.71337 71.1185 11.4882 72.4144 12.8129L73.8441 11.4143ZM72.9821 7.96455C73.1746 6.66383 73.6865 5.5465 74.5201 4.58812L73.0111 3.27551C71.9205 4.52925 71.2506 6.00284 71.0037 7.67182L72.9821 7.96455ZM74.5223 4.58557C75.3706 3.6037 76.4702 2.82761 77.8472 2.26712L77.0932 0.414695C75.455 1.08148 74.0849 2.03266 73.0089 3.27806L74.5223 4.58557ZM77.8512 2.26549C79.2228 1.70029 80.7691 1.40909 82.5043 1.40909V-0.59091C80.5425 -0.59091 78.7327 -0.260901 77.0892 0.416326L77.8512 2.26549ZM82.5043 1.40909C84.2767 1.40909 85.6953 1.70632 86.8021 2.24986L87.6837 0.454681C86.2299 -0.259349 84.4894 -0.59091 82.5043 -0.59091V1.40909ZM86.8021 2.24986C87.9121 2.79502 88.6689 3.53217 89.135 4.45196L90.919 3.54804C90.2335 2.19511 89.1343 1.1671 87.6837 0.454681L86.8021 2.24986ZM89.135 4.45196C89.5986 5.36698 89.7641 6.48294 89.5606 7.8531L91.5389 8.1469C91.7899 6.45645 91.6069 4.90575 90.919 3.54804L89.135 4.45196ZM90.5497 7H84.5043V9H90.5497V7ZM105.728 5.81818L104.74 5.66596L104.562 6.81818H105.728V5.81818ZM106.512 0.727272V-0.272728H105.654L105.524 0.575049L106.512 0.727272ZM126.739 0.727272L127.728 0.879495L127.905 -0.272728H126.739V0.727272ZM125.955 5.81818V6.81818H126.813L126.944 5.9704L125.955 5.81818ZM118.955 5.81818V4.81818H118.093L117.966 5.67166L118.955 5.81818ZM116.262 24V25H117.125L117.251 24.1465L116.262 24ZM110.035 24L109.046 23.8535L108.876 25H110.035V24ZM112.728 5.81818L113.717 5.96471L113.887 4.81818H112.728V5.81818ZM106.716 5.9704L107.501 0.879495L105.524 0.575049L104.74 5.66596L106.716 5.9704ZM106.512 1.72727H126.739V-0.272728H106.512V1.72727ZM125.751 0.575049L124.967 5.66596L126.944 5.9704L127.728 0.879495L125.751 0.575049ZM125.955 4.81818H118.955V6.81818H125.955V4.81818ZM117.966 5.67166L115.273 23.8535L117.251 24.1465L119.945 5.96471L117.966 5.67166ZM116.262 23H110.035V25H116.262V23ZM111.024 24.1465L113.717 5.96471L111.739 5.67166L109.046 23.8535L111.024 24.1465ZM112.728 4.81818H105.728V6.81818H112.728V4.81818ZM151.962 12.7273L150.974 12.5771L150.973 12.5797L151.962 12.7273ZM149.542 19.1136L148.729 18.5304L148.728 18.5327L149.542 19.1136ZM145.019 23.0114L145.457 23.9103L145.46 23.9088L145.019 23.0114ZM133.564 22.9091L133.058 23.7716L133.063 23.7743L133.564 22.9091ZM129.996 18.7614L129.073 19.1446L129.075 19.1492L129.996 18.7614ZM129.451 12.0795L130.44 12.2277L130.44 12.2243L129.451 12.0795ZM131.849 5.68182L131.034 5.10193L131.033 5.10261L131.849 5.68182ZM136.394 1.75L136.837 2.64669L136.838 2.64593L136.394 1.75ZM147.86 1.84091L147.351 2.7016L147.354 2.70336L147.86 1.84091ZM151.417 6.01136L150.493 6.39327L150.494 6.39652L151.417 6.01136ZM145.587 12.0795L146.576 12.2312L146.577 12.2194L145.587 12.0795ZM145.564 8.69318L144.587 8.90327L144.588 8.91097L145.564 8.69318ZM144.371 6.61364L143.749 7.39647L143.754 7.4003L144.371 6.61364ZM139.053 6.72727L139.589 7.57188L139.594 7.56845L139.053 6.72727ZM136.951 9.05682L136.073 8.57842L136.07 8.5835L136.951 9.05682ZM135.826 12.7273L136.814 12.8818L136.816 12.8687L135.826 12.7273ZM135.826 16.1136L134.852 16.3427L134.854 16.3504L135.826 16.1136ZM137.076 18.1477L136.481 18.9513L136.487 18.956L137.076 18.1477ZM142.371 18.0341L142.899 18.8834L142.905 18.8799L142.371 18.0341ZM144.439 15.7386L143.56 15.2626L143.559 15.2649L144.439 15.7386ZM150.973 12.5797C150.613 14.9933 149.854 16.9644 148.729 18.5304L150.354 19.6969C151.699 17.8235 152.554 15.537 152.951 12.8749L150.973 12.5797ZM148.728 18.5327C147.591 20.1261 146.208 21.3126 144.578 22.1139L145.46 23.9088C147.406 22.9526 149.038 21.5406 150.356 19.6945L148.728 18.5327ZM144.581 22.1124C142.934 22.915 141.164 23.3182 139.258 23.3182V25.3182C141.457 25.3182 143.528 24.8502 145.457 23.9103L144.581 22.1124ZM139.258 23.3182C137.231 23.3182 135.512 22.8817 134.066 22.0438L133.063 23.7743C134.86 24.8153 136.936 25.3182 139.258 25.3182V23.3182ZM134.071 22.0466C132.654 21.215 131.604 20.0043 130.918 18.3735L129.075 19.1492C129.919 21.1548 131.248 22.7092 133.058 23.7715L134.071 22.0466ZM130.92 18.3781C130.252 16.7686 130.064 14.7367 130.44 12.2277L128.462 11.9313C128.05 14.68 128.225 17.1026 129.073 19.1446L130.92 18.3781ZM130.44 12.2243C130.793 9.81039 131.545 7.8349 132.664 6.26103L131.033 5.10261C129.697 6.98328 128.851 9.27294 128.461 11.9348L130.44 12.2243ZM132.663 6.26171C133.808 4.65278 135.199 3.45519 136.837 2.64669L135.951 0.853314C133.998 1.81753 132.358 3.24116 131.034 5.10193L132.663 6.26171ZM136.838 2.64593C138.499 1.82237 140.282 1.40909 142.201 1.40909V-0.59091C139.983 -0.59091 137.895 -0.110255 135.95 0.854072L136.838 2.64593ZM142.201 1.40909C144.208 1.40909 145.913 1.85134 147.351 2.70159L148.369 0.980223C146.579 -0.078613 144.511 -0.59091 142.201 -0.59091V1.40909ZM147.354 2.70336C148.768 3.53311 149.813 4.74845 150.493 6.39327L152.341 5.62946C151.505 3.60761 150.179 2.04265 148.366 0.978454L147.354 2.70336ZM150.494 6.39652C151.168 8.01196 151.357 10.0536 150.974 12.5771L152.951 12.8774C153.371 10.1131 153.196 7.67744 152.34 5.62621L150.494 6.39652ZM146.577 12.2194C146.777 10.8075 146.78 9.54903 146.54 8.4754L144.588 8.91097C144.758 9.67066 144.776 10.6697 144.597 11.9397L146.577 12.2194ZM146.542 8.4831C146.308 7.39289 145.811 6.47209 144.989 5.82697L143.754 7.4003C144.129 7.69458 144.427 8.16014 144.587 8.90326L146.542 8.4831ZM144.994 5.83081C144.177 5.18167 143.143 4.90909 141.996 4.90909V6.90909C142.834 6.90909 143.384 7.10621 143.749 7.39646L144.994 5.83081ZM141.996 4.90909C140.712 4.90909 139.539 5.2263 138.512 5.88609L139.594 7.56845C140.264 7.13733 141.054 6.90909 141.996 6.90909V4.90909ZM138.518 5.88268C137.505 6.52444 136.695 7.4368 136.073 8.57843L137.829 9.53521C138.313 8.64654 138.904 8.00586 139.589 7.57186L138.518 5.88268ZM136.07 8.5835C135.457 9.72461 135.053 11.0663 134.836 12.5859L136.816 12.8687C137.008 11.5246 137.354 10.4193 137.832 9.53013L136.07 8.5835ZM134.838 12.5727C134.615 14.0005 134.6 15.2701 134.852 16.3427L136.799 15.8846C136.627 15.1541 136.613 14.1662 136.814 12.8818L134.838 12.5727ZM134.854 16.3504C135.117 17.4283 135.641 18.3294 136.481 18.9513L137.671 17.3442C137.283 17.057 136.974 16.602 136.797 15.8769L134.854 16.3504ZM136.487 18.956C137.315 19.5592 138.334 19.8182 139.462 19.8182V17.8182C138.636 17.8182 138.064 17.6302 137.665 17.3394L136.487 18.956ZM139.462 19.8182C140.726 19.8182 141.883 19.5152 142.899 18.8834L141.843 17.1848C141.178 17.5985 140.395 17.8182 139.462 17.8182V19.8182ZM142.905 18.8799C143.911 18.2452 144.712 17.3424 145.32 16.2123L143.559 15.2649C143.091 16.1349 142.513 16.7624 141.838 17.1882L142.905 18.8799ZM145.319 16.2147C145.931 15.0833 146.343 13.7479 146.576 12.2312L144.599 11.9279C144.392 13.2748 144.039 14.3788 143.56 15.2626L145.319 16.2147ZM180.631 12.7273L179.642 12.5771L179.642 12.5797L180.631 12.7273ZM178.211 19.1136L177.398 18.5304L177.397 18.5327L178.211 19.1136ZM173.688 23.0114L174.126 23.9103L174.129 23.9088L173.688 23.0114ZM162.233 22.9091L161.727 23.7716L161.732 23.7743L162.233 22.9091ZM158.665 18.7614L157.741 19.1446L157.743 19.1492L158.665 18.7614ZM158.12 12.0795L159.109 12.2277L159.109 12.2243L158.12 12.0795ZM160.517 5.68182L159.703 5.10193L159.702 5.10261L160.517 5.68182ZM165.063 1.75L165.505 2.64669L165.507 2.64593L165.063 1.75ZM176.529 1.84091L176.02 2.7016L176.023 2.70336L176.529 1.84091ZM180.086 6.01136L179.161 6.39327L179.163 6.39652L180.086 6.01136ZM174.256 12.0795L175.244 12.2312L175.246 12.2194L174.256 12.0795ZM174.233 8.69318L173.256 8.90327L173.257 8.91097L174.233 8.69318ZM173.04 6.61364L172.418 7.39647L172.423 7.4003L173.04 6.61364ZM167.722 6.72727L168.257 7.57188L168.263 7.56845L167.722 6.72727ZM165.62 9.05682L164.741 8.57842L164.739 8.5835L165.62 9.05682ZM164.495 12.7273L165.483 12.8818L165.485 12.8687L164.495 12.7273ZM164.495 16.1136L163.521 16.3427L163.523 16.3504L164.495 16.1136ZM165.745 18.1477L165.149 18.9513L165.156 18.956L165.745 18.1477ZM171.04 18.0341L171.568 18.8834L171.573 18.8799L171.04 18.0341ZM173.108 15.7386L172.229 15.2626L172.228 15.2649L173.108 15.7386ZM179.642 12.5797C179.282 14.9933 178.523 16.9644 177.398 18.5304L179.023 19.6969C180.368 17.8235 181.223 15.537 181.62 12.8749L179.642 12.5797ZM177.397 18.5327C176.259 20.1261 174.877 21.3126 173.247 22.1139L174.129 23.9088C176.074 22.9526 177.707 21.5406 179.024 19.6945L177.397 18.5327ZM173.25 22.1124C171.603 22.915 169.833 23.3182 167.926 23.3182V25.3182C170.126 25.3182 172.197 24.8502 174.126 23.9103L173.25 22.1124ZM167.926 23.3182C165.9 23.3182 164.181 22.8817 162.735 22.0438L161.732 23.7743C163.528 24.8153 165.605 25.3182 167.926 25.3182V23.3182ZM162.739 22.0466C161.322 21.215 160.273 20.0043 159.587 18.3735L157.743 19.1492C158.587 21.1548 159.917 22.7092 161.727 23.7715L162.739 22.0466ZM159.589 18.3781C158.921 16.7686 158.733 14.7367 159.109 12.2277L157.131 11.9313C156.719 14.68 156.894 17.1026 157.741 19.1446L159.589 18.3781ZM159.109 12.2243C159.462 9.81039 160.214 7.8349 161.332 6.26103L159.702 5.10261C158.366 6.98328 157.519 9.27294 157.13 11.9348L159.109 12.2243ZM161.332 6.26171C162.477 4.65278 163.868 3.45519 165.505 2.64669L164.62 0.853314C162.667 1.81753 161.027 3.24116 159.703 5.10193L161.332 6.26171ZM165.507 2.64593C167.168 1.82237 168.951 1.40909 170.87 1.40909V-0.59091C168.652 -0.59091 166.564 -0.110255 164.619 0.854072L165.507 2.64593ZM170.87 1.40909C172.877 1.40909 174.582 1.85134 176.02 2.70159L177.038 0.980223C175.248 -0.078613 173.18 -0.59091 170.87 -0.59091V1.40909ZM176.023 2.70336C177.436 3.53311 178.482 4.74845 179.161 6.39327L181.01 5.62946C180.174 3.60761 178.848 2.04265 177.035 0.978454L176.023 2.70336ZM179.163 6.39652C179.837 8.01196 180.026 10.0536 179.642 12.5771L181.62 12.8774C182.039 10.1131 181.864 7.67744 181.008 5.62621L179.163 6.39652ZM175.246 12.2194C175.446 10.8075 175.449 9.54903 175.209 8.4754L173.257 8.91097C173.427 9.67066 173.445 10.6697 173.266 11.9397L175.246 12.2194ZM175.211 8.4831C174.977 7.39289 174.479 6.47209 173.657 5.82697L172.423 7.4003C172.798 7.69458 173.096 8.16014 173.256 8.90326L175.211 8.4831ZM173.662 5.83081C172.846 5.18167 171.812 4.90909 170.665 4.90909V6.90909C171.503 6.90909 172.053 7.10621 172.418 7.39646L173.662 5.83081ZM170.665 4.90909C169.38 4.90909 168.207 5.2263 167.181 5.88609L168.263 7.56845C168.933 7.13733 169.722 6.90909 170.665 6.90909V4.90909ZM167.186 5.88268C166.174 6.52444 165.363 7.4368 164.741 8.57843L166.498 9.53521C166.982 8.64654 167.573 8.00586 168.257 7.57186L167.186 5.88268ZM164.739 8.5835C164.126 9.72461 163.722 11.0663 163.505 12.5859L165.485 12.8687C165.677 11.5246 166.023 10.4193 166.5 9.53013L164.739 8.5835ZM163.507 12.5727C163.283 14.0005 163.269 15.2701 163.521 16.3427L165.468 15.8846C165.296 15.1541 165.282 14.1662 165.483 12.8818L163.507 12.5727ZM163.523 16.3504C163.786 17.4283 164.31 18.3294 165.149 18.9513L166.34 17.3442C165.952 17.057 165.643 16.602 165.466 15.8769L163.523 16.3504ZM165.156 18.956C165.984 19.5592 167.003 19.8182 168.131 19.8182V17.8182C167.304 17.8182 166.733 17.6302 166.333 17.3394L165.156 18.956ZM168.131 19.8182C169.395 19.8182 170.552 19.5152 171.568 18.8834L170.512 17.1848C169.847 17.5985 169.064 17.8182 168.131 17.8182V19.8182ZM171.573 18.8799C172.58 18.2452 173.381 17.3424 173.989 16.2123L172.228 15.2649C171.76 16.1349 171.182 16.7624 170.507 17.1882L171.573 18.8799ZM173.988 16.2147C174.6 15.0833 175.012 13.7479 175.244 12.2312L173.268 11.9279C173.061 13.2748 172.707 14.3788 172.229 15.2626L173.988 16.2147ZM185.084 24L184.095 23.8522L183.923 25H185.084V24ZM188.561 0.727272V-0.272728H187.699L187.572 0.579498L188.561 0.727272ZM194.879 0.727272L195.868 0.874403L196.039 -0.272728H194.879V0.727272ZM192.175 18.9091L191.186 18.762L191.015 19.9091H192.175V18.9091ZM201.584 18.9091L202.572 19.0592L202.747 17.9091H201.584V18.9091ZM200.811 24V25H201.671L201.8 24.1501L200.811 24ZM186.073 24.1478L189.55 0.875046L187.572 0.579498L184.095 23.8522L186.073 24.1478ZM188.561 1.72727H194.879V-0.272728H188.561V1.72727ZM193.89 0.580141L191.186 18.762L193.164 19.0562L195.868 0.874403L193.89 0.580141ZM192.175 19.9091H201.584V17.9091H192.175V19.9091ZM200.595 18.759L199.822 23.8499L201.8 24.1501L202.572 19.0592L200.595 18.759ZM200.811 23H185.084V25H200.811V23ZM206.565 24L205.576 23.8522L205.405 25H206.565V24ZM210.042 0.727272V-0.272728H209.181L209.053 0.579498L210.042 0.727272ZM216.361 0.727272L217.35 0.87421L217.52 -0.272728H216.361V0.727272ZM214.963 10.1364L213.974 9.98942L213.803 11.1364H214.963V10.1364ZM215.281 10.1364V11.1364H215.729L216.027 10.8022L215.281 10.1364ZM223.679 0.727272V-0.272728H223.231L222.933 0.0613995L223.679 0.727272ZM231.042 0.727272L231.784 1.39812L233.295 -0.272728H231.042V0.727272ZM221.667 11.0909L220.926 10.4201L220.479 10.9142L220.763 11.517L221.667 11.0909ZM227.747 24V25H229.323L228.652 23.5739L227.747 24ZM220.201 24L219.287 24.4058L219.551 25H220.201V24ZM216.326 15.2727L217.24 14.8669L216.621 13.4728L215.59 14.5965L216.326 15.2727ZM213.781 18.0455L213.044 17.3692L212.838 17.5943L212.792 17.8964L213.781 18.0455ZM212.883 24V25H213.744L213.872 24.1491L212.883 24ZM207.554 24.1478L211.031 0.875046L209.053 0.579498L205.576 23.8522L207.554 24.1478ZM210.042 1.72727H216.361V-0.272728H210.042V1.72727ZM215.371 0.580334L213.974 9.98942L215.952 10.2833L217.35 0.87421L215.371 0.580334ZM214.963 11.1364H215.281V9.13636H214.963V11.1364ZM216.027 10.8022L224.425 1.39314L222.933 0.0613995L214.535 9.47049L216.027 10.8022ZM223.679 1.72727H231.042V-0.272728H223.679V1.72727ZM230.301 0.0564226L220.926 10.4201L222.409 11.7618L231.784 1.39812L230.301 0.0564226ZM220.763 11.517L226.842 24.4261L228.652 23.5739L222.572 10.6648L220.763 11.517ZM227.747 23H220.201V25H227.747V23ZM221.115 23.5942L217.24 14.8669L215.412 15.6785L219.287 24.4058L221.115 23.5942ZM215.59 14.5965L213.044 17.3692L214.518 18.7217L217.063 15.949L215.59 14.5965ZM212.792 17.8964L211.894 23.8509L213.872 24.1491L214.77 18.1945L212.792 17.8964ZM212.883 23H206.565V25H212.883V23ZM242.436 0.727272L243.425 0.875046L243.596 -0.272728H242.436V0.727272ZM238.958 24V25H239.82L239.947 24.1478L238.958 24ZM232.64 24L231.651 23.8522L231.48 25H232.64V24ZM236.117 0.727272V-0.272728H235.256L235.128 0.579498L236.117 0.727272ZM241.446 0.579498L237.969 23.8522L239.947 24.1478L243.425 0.875046L241.446 0.579498ZM238.958 23H232.64V25H238.958V23ZM233.629 24.1478L237.106 0.875046L235.128 0.579498L231.651 23.8522L233.629 24.1478ZM236.117 1.72727H242.436V-0.272728H236.117V1.72727ZM247.209 5.81818L246.221 5.66596L246.044 6.81818H247.209V5.81818ZM247.993 0.727272V-0.272728H247.136L247.005 0.575049L247.993 0.727272ZM268.221 0.727272L269.209 0.879495L269.387 -0.272728H268.221V0.727272ZM267.437 5.81818V6.81818H268.294L268.425 5.9704L267.437 5.81818ZM260.437 5.81818V4.81818H259.574L259.447 5.67166L260.437 5.81818ZM257.743 24V25H258.606L258.733 24.1465L257.743 24ZM251.516 24L250.527 23.8535L250.357 25H251.516V24ZM254.209 5.81818L255.199 5.96471L255.368 4.81818H254.209V5.81818ZM248.198 5.9704L248.982 0.879495L247.005 0.575049L246.221 5.66596L248.198 5.9704ZM247.993 1.72727H268.221V-0.272728H247.993V1.72727ZM267.232 0.575049L266.448 5.66596L268.425 5.9704L269.209 0.879495L267.232 0.575049ZM267.437 4.81818H260.437V6.81818H267.437V4.81818ZM259.447 5.67166L256.754 23.8535L258.733 24.1465L261.426 5.96471L259.447 5.67166ZM257.743 23H251.516V25H257.743V23ZM252.505 24.1465L255.199 5.96471L253.22 5.67166L250.527 23.8535L252.505 24.1465ZM254.209 4.81818H247.209V6.81818H254.209V4.81818Z" fill="black"/>
</svg>
