<svg width="144" height="16" viewBox="0 0 144 16" fill="none" xmlns="http://www.w3.org/2000/svg">
<path d="M0.398218 15L2.81299 0.454545H12.1312L11.7619 2.66335H5.07862L4.42521 6.61222H10.4692L10.0999 8.82102H4.05589L3.03316 15H0.398218ZM12.317 15L14.7318 0.454545H17.3667L15.3212 12.7912H21.7275L21.3582 15H12.317ZM26.702 0.454545L28.5912 11.9034H28.7403L34.415 0.454545H37.3128L29.7702 15H26.5173L23.8114 0.454545H26.702ZM46.6516 4.52415C46.6706 3.866 46.4693 3.36174 46.0479 3.01136C45.6313 2.66098 45.0323 2.4858 44.2511 2.4858C43.7018 2.4858 43.2165 2.56866 42.7951 2.73438C42.3784 2.89536 42.0423 3.12027 41.7866 3.40909C41.5309 3.69318 41.3723 4.01752 41.3107 4.3821C41.2586 4.6804 41.2847 4.94081 41.3888 5.16335C41.493 5.38589 41.6516 5.57528 41.8647 5.73153C42.0825 5.88778 42.3287 6.01799 42.6033 6.12216C42.8827 6.22633 43.1668 6.31392 43.4556 6.38494L44.7624 6.72585C45.2833 6.85369 45.7804 7.02651 46.2539 7.24432C46.7274 7.45739 47.137 7.73201 47.4826 8.06818C47.833 8.39962 48.0887 8.79972 48.2496 9.26847C48.4106 9.73722 48.4367 10.2865 48.3278 10.9162C48.1857 11.7685 47.8424 12.5189 47.2979 13.1676C46.7582 13.8116 46.0479 14.3158 45.1673 14.6804C44.2913 15.0402 43.271 15.2202 42.1062 15.2202C40.9793 15.2202 40.0276 15.045 39.2511 14.6946C38.4746 14.3395 37.9064 13.8258 37.5465 13.1534C37.1914 12.4811 37.0778 11.6643 37.2056 10.7031H39.7979C39.7459 11.2098 39.8287 11.6312 40.0465 11.9673C40.2691 12.3035 40.5887 12.5545 41.0053 12.7202C41.422 12.8859 41.9049 12.9688 42.4542 12.9688C43.0271 12.9688 43.5456 12.8835 44.0096 12.7131C44.4736 12.5379 44.8524 12.2964 45.146 11.9886C45.4442 11.6761 45.6265 11.3116 45.6928 10.8949C45.7591 10.5208 45.7047 10.2083 45.5295 9.95739C45.3543 9.70644 45.082 9.49811 44.7127 9.33239C44.3481 9.16193 43.9125 9.01042 43.4059 8.87784L41.8292 8.4517C40.6881 8.1392 39.8216 7.67045 39.2298 7.04545C38.6426 6.42045 38.4343 5.58712 38.6048 4.54545C38.7468 3.68371 39.1043 2.93324 39.6772 2.29403C40.2501 1.65009 40.9674 1.15057 41.8292 0.795454C42.6909 0.435605 43.6332 0.255681 44.6559 0.255681C45.6881 0.255681 46.5617 0.435605 47.2766 0.795454C47.9963 1.1553 48.5219 1.6572 48.8533 2.30114C49.1895 2.94034 49.3008 3.68134 49.1871 4.52415H46.6516Z" fill="#002025"/>
<path d="M56.7693 2.66335L57.1386 0.454545H68.7437L68.3744 2.66335H63.8787L61.8332 15H59.2196L61.2651 2.66335H56.7693ZM82.2978 7.89773C82.0421 9.44129 81.5378 10.7576 80.785 11.8466C80.0369 12.9309 79.1231 13.7618 78.0435 14.3395C76.9687 14.9124 75.811 15.1989 74.5705 15.1989C73.2684 15.1989 72.151 14.8958 71.2182 14.2898C70.2855 13.679 69.6131 12.8054 69.2012 11.669C68.794 10.5327 68.723 9.16903 68.9881 7.57812C69.2438 6.0393 69.7457 4.72301 70.4938 3.62926C71.2419 2.53551 72.1581 1.69981 73.2424 1.12216C74.3267 0.544507 75.4962 0.255681 76.7509 0.255681C78.0435 0.255681 79.1515 0.561079 80.0748 1.17188C81.0028 1.77794 81.6704 2.65151 82.0776 3.79261C82.4895 4.93371 82.5629 6.30208 82.2978 7.89773ZM79.7054 7.57812C79.8806 6.50331 79.8641 5.59659 79.6557 4.85795C79.4521 4.11932 79.0899 3.56297 78.5691 3.18892C78.0482 2.81013 77.4067 2.62074 76.6444 2.62074C75.8205 2.62074 75.0582 2.8267 74.3574 3.23864C73.6614 3.64583 73.0696 4.24242 72.5819 5.02841C72.0989 5.81439 71.7675 6.77083 71.5875 7.89773C71.3982 8.97727 71.41 9.884 71.6231 10.6179C71.8361 11.3518 72.2054 11.9058 72.731 12.2798C73.2566 12.6491 73.8982 12.8338 74.6557 12.8338C75.4749 12.8338 76.2324 12.6302 76.9285 12.223C77.6245 11.8158 78.214 11.2216 78.6969 10.4403C79.1846 9.65909 79.5208 8.70502 79.7054 7.57812ZM97.9861 7.89773C97.7304 9.44129 97.2261 10.7576 96.4733 11.8466C95.7252 12.9309 94.8114 13.7618 93.7318 14.3395C92.657 14.9124 91.4993 15.1989 90.2588 15.1989C88.9567 15.1989 87.8393 14.8958 86.9065 14.2898C85.9738 13.679 85.3014 12.8054 84.8895 11.669C84.4823 10.5327 84.4113 9.16903 84.6764 7.57812C84.9321 6.0393 85.434 4.72301 86.1821 3.62926C86.9302 2.53551 87.8464 1.69981 88.9307 1.12216C90.015 0.544507 91.1845 0.255681 92.4392 0.255681C93.7318 0.255681 94.8398 0.561079 95.7631 1.17188C96.6911 1.77794 97.3587 2.65151 97.7659 3.79261C98.1778 4.93371 98.2512 6.30208 97.9861 7.89773ZM95.3937 7.57812C95.5689 6.50331 95.5524 5.59659 95.344 4.85795C95.1404 4.11932 94.7782 3.56297 94.2574 3.18892C93.7365 2.81013 93.095 2.62074 92.3327 2.62074C91.5088 2.62074 90.7465 2.8267 90.0457 3.23864C89.3497 3.64583 88.7578 4.24242 88.2702 5.02841C87.7872 5.81439 87.4558 6.77083 87.2758 7.89773C87.0864 8.97727 87.0983 9.884 87.3114 10.6179C87.5244 11.3518 87.8937 11.9058 88.4193 12.2798C88.9449 12.6491 89.5864 12.8338 90.344 12.8338C91.1632 12.8338 91.9207 12.6302 92.6167 12.223C93.3128 11.8158 93.9023 11.2216 94.3852 10.4403C94.8729 9.65909 95.2091 8.70502 95.3937 7.57812ZM99.4982 15L101.913 0.454545H104.548L102.502 12.7912H108.909L108.539 15H99.4982ZM111.026 15L113.441 0.454545H116.076L114.975 7.13778H115.153L121.928 0.454545H125.146L118.448 6.98153L122.781 15H119.613L116.332 8.7642L114.386 10.6818L113.661 15H111.026ZM129.811 0.454545L127.396 15H124.761L127.176 0.454545H129.811ZM131.856 2.66335L132.225 0.454545H143.83L143.461 2.66335H138.965L136.92 15H134.306L136.352 2.66335H131.856Z" fill="#002525" fill-opacity="0.333333"/>
<path d="M0.398218 15L-0.58828 14.8362L-0.781484 16H0.398218V15ZM2.81299 0.454545V-0.545455H1.96532L1.82649 0.290771L2.81299 0.454545ZM12.1312 0.454545L13.1175 0.619458L13.3123 -0.545455H12.1312V0.454545ZM11.7619 2.66335V3.66335H12.6085L12.7482 2.82827L11.7619 2.66335ZM5.07862 2.66335V1.66335H4.23049L4.09203 2.5001L5.07862 2.66335ZM4.42521 6.61222L3.43862 6.44897L3.24614 7.61222H4.42521V6.61222ZM10.4692 6.61222L11.4555 6.77713L11.6503 5.61222H10.4692V6.61222ZM10.0999 8.82102V9.82102H10.9466L11.0862 8.98594L10.0999 8.82102ZM4.05589 8.82102V7.82102H3.2078L3.06931 8.65773L4.05589 8.82102ZM3.03316 15V16H3.88125L4.01974 15.1633L3.03316 15ZM1.38472 15.1638L3.79949 0.618319L1.82649 0.290771L-0.58828 14.8362L1.38472 15.1638ZM2.81299 1.45455H12.1312V-0.545455H2.81299V1.45455ZM11.1449 0.289632L10.7755 2.49844L12.7482 2.82827L13.1175 0.619458L11.1449 0.289632ZM11.7619 1.66335H5.07862V3.66335H11.7619V1.66335ZM4.09203 2.5001L3.43862 6.44897L5.41179 6.77546L6.0652 2.8266L4.09203 2.5001ZM4.42521 7.61222H10.4692V5.61222H4.42521V7.61222ZM9.48293 6.4473L9.11361 8.65611L11.0862 8.98594L11.4555 6.77713L9.48293 6.4473ZM10.0999 7.82102H4.05589V9.82102H10.0999V7.82102ZM3.06931 8.65773L2.04658 14.8367L4.01974 15.1633L5.04247 8.98432L3.06931 8.65773ZM3.03316 14H0.398218V16H3.03316V14ZM12.317 15L11.3305 14.8362L11.1373 16H12.317V15ZM14.7318 0.454545V-0.545455H13.8841L13.7453 0.290771L14.7318 0.454545ZM17.3667 0.454545L18.3532 0.618115L18.5462 -0.545455H17.3667V0.454545ZM15.3212 12.7912L14.3347 12.6276L14.1418 13.7912H15.3212V12.7912ZM21.7275 12.7912L22.7138 12.9561L22.9086 11.7912H21.7275V12.7912ZM21.3582 15V16H22.2049L22.3445 15.1649L21.3582 15ZM13.3035 15.1638L15.7183 0.618319L13.7453 0.290771L11.3305 14.8362L13.3035 15.1638ZM14.7318 1.45455H17.3667V-0.545455H14.7318V1.45455ZM16.3802 0.290975L14.3347 12.6276L16.3078 12.9548L18.3532 0.618115L16.3802 0.290975ZM15.3212 13.7912H21.7275V11.7912H15.3212V13.7912ZM20.7412 12.6263L20.3719 14.8351L22.3445 15.1649L22.7138 12.9561L20.7412 12.6263ZM21.3582 14H12.317V16H21.3582V14ZM26.702 0.454545L27.6886 0.291734L27.5505 -0.545455H26.702V0.454545ZM28.5912 11.9034L27.6045 12.0662L27.7427 12.9034H28.5912V11.9034ZM28.7403 11.9034V12.9034H29.3608L29.6363 12.3475L28.7403 11.9034ZM34.415 0.454545V-0.545455H33.7946L33.5191 0.0104467L34.415 0.454545ZM37.3128 0.454545L38.2005 0.914888L38.9578 -0.545455H37.3128V0.454545ZM29.7702 15V16H30.3781L30.6579 15.4603L29.7702 15ZM26.5173 15L25.5342 15.1829L25.6862 16H26.5173V15ZM23.8114 0.454545V-0.545455H22.6082L22.8282 0.637442L23.8114 0.454545ZM25.7153 0.617356L27.6045 12.0662L29.5778 11.7406L27.6886 0.291734L25.7153 0.617356ZM28.5912 12.9034H28.7403V10.9034H28.5912V12.9034ZM29.6363 12.3475L35.311 0.898643L33.5191 0.0104467L27.8444 11.4593L29.6363 12.3475ZM34.415 1.45455H37.3128V-0.545455H34.415V1.45455ZM36.425 -0.00579747L28.8824 14.5397L30.6579 15.4603L38.2005 0.914888L36.425 -0.00579747ZM29.7702 14H26.5173V16H29.7702V14ZM27.5004 14.8171L24.7945 0.271648L22.8282 0.637442L25.5342 15.1829L27.5004 14.8171ZM23.8114 1.45455H26.702V-0.545455H23.8114V1.45455ZM46.6516 4.52415L45.652 4.49538L45.6224 5.52415H46.6516V4.52415ZM46.0479 3.01136L45.4043 3.77674L45.4086 3.78029L46.0479 3.01136ZM42.7951 2.73438L43.1555 3.66719L43.1611 3.665L42.7951 2.73438ZM41.7866 3.40909L42.5299 4.07808L42.5353 4.07193L41.7866 3.40909ZM41.3107 4.3821L42.2958 4.55411L42.2968 4.54858L41.3107 4.3821ZM41.3888 5.16335L42.2945 4.73941L42.2945 4.73941L41.3888 5.16335ZM41.8647 5.73153L41.2733 6.53798L41.2818 6.54407L41.8647 5.73153ZM42.6033 6.12216L42.2487 7.05717L42.254 7.05914L42.6033 6.12216ZM43.4556 6.38494L43.7081 5.41723L43.6944 5.41387L43.4556 6.38494ZM44.7624 6.72585L44.51 7.69347L44.517 7.6953L44.5241 7.69702L44.7624 6.72585ZM46.2539 7.24432L45.836 8.15284L45.8435 8.15624L46.2539 7.24432ZM47.4826 8.06818L46.7853 8.78511L46.7954 8.79465L47.4826 8.06818ZM48.3278 10.9162L47.3424 10.7458L47.3414 10.7518L48.3278 10.9162ZM47.2979 13.1676L46.532 12.5247L46.5316 12.5252L47.2979 13.1676ZM45.1673 14.6804L45.5473 15.6054L45.5498 15.6044L45.1673 14.6804ZM39.2511 14.6946L38.8352 15.604L38.8398 15.6061L39.2511 14.6946ZM37.5465 13.1534L36.6623 13.6204L36.6649 13.6253L37.5465 13.1534ZM37.2056 10.7031V9.70312H36.3298L36.2143 10.5713L37.2056 10.7031ZM39.7979 10.7031L40.7927 10.8054L40.906 9.70312H39.7979V10.7031ZM40.0465 11.9673L39.2072 12.5111L39.2127 12.5193L40.0465 11.9673ZM41.0053 12.7202L41.3749 11.791L41.3749 11.791L41.0053 12.7202ZM44.0096 12.7131L44.3544 13.6518L44.3628 13.6486L44.0096 12.7131ZM45.146 11.9886L44.4226 11.2982L44.4223 11.2984L45.146 11.9886ZM45.6928 10.8949L44.7082 10.7204L44.7066 10.7291L44.7052 10.7378L45.6928 10.8949ZM45.5295 9.95739L46.3494 9.38496L46.3494 9.38496L45.5295 9.95739ZM44.7127 9.33239L44.2892 10.2383L44.2962 10.2416L44.3033 10.2447L44.7127 9.33239ZM43.4059 8.87784L43.145 9.84324L43.1527 9.84527L43.4059 8.87784ZM41.8292 8.4517L41.5651 9.4162L41.5683 9.41707L41.8292 8.4517ZM39.2298 7.04545L38.5009 7.73014L38.5037 7.73305L39.2298 7.04545ZM38.6048 4.54545L37.6181 4.38281L37.6179 4.38397L38.6048 4.54545ZM39.6772 2.29403L40.4219 2.96148L40.4243 2.95874L39.6772 2.29403ZM41.8292 0.795454L42.2102 1.72004L42.2145 1.71823L41.8292 0.795454ZM47.2766 0.795454L46.8271 1.6887L46.8294 1.68988L47.2766 0.795454ZM48.8533 2.30114L47.9642 2.7588L47.9683 2.76661L48.8533 2.30114ZM49.1871 4.52415V5.52415H50.0614L50.1782 4.65777L49.1871 4.52415ZM47.6512 4.55291C47.677 3.6566 47.3933 2.8295 46.6873 2.24243L45.4086 3.78029C45.5453 3.89399 45.6641 4.0754 45.652 4.49538L47.6512 4.55291ZM46.6915 2.246C46.0304 1.69001 45.1673 1.4858 44.2511 1.4858V3.4858C44.8973 3.4858 45.2322 3.63196 45.4043 3.77673L46.6915 2.246ZM44.2511 1.4858C43.6025 1.4858 42.989 1.58357 42.4291 1.80375L43.1611 3.665C43.444 3.55374 43.8011 3.4858 44.2511 3.4858V1.4858ZM42.4347 1.80158C41.8925 2.01106 41.4151 2.32004 41.0378 2.74625L42.5353 4.07193C42.6694 3.92049 42.8644 3.77966 43.1555 3.66717L42.4347 1.80158ZM41.0433 2.74013C40.6652 3.16027 40.4189 3.65737 40.3247 4.21563L42.2968 4.54858C42.3256 4.37767 42.3966 4.22609 42.5299 4.07805L41.0433 2.74013ZM40.3256 4.2101C40.2466 4.66298 40.2736 5.1396 40.4832 5.58729L42.2945 4.73941C42.2934 4.73696 42.2887 4.72678 42.2862 4.70163C42.2836 4.67484 42.283 4.62734 42.2958 4.5541L40.3256 4.2101ZM40.4832 5.58729C40.6637 5.973 40.9356 6.29024 41.2733 6.53794L42.4561 4.92513C42.3677 4.86032 42.3223 4.79878 42.2945 4.73941L40.4832 5.58729ZM41.2818 6.54407C41.5764 6.75543 41.9007 6.92515 42.2487 7.05716L42.958 5.18716C42.7568 5.11084 42.5886 5.02013 42.4476 4.919L41.2818 6.54407ZM42.254 7.05914C42.5694 7.17676 42.8904 7.27575 43.2168 7.35601L43.6944 5.41387C43.4432 5.35209 43.196 5.27589 42.9527 5.18518L42.254 7.05914ZM43.2032 7.35256L44.51 7.69347L45.0149 5.75823L43.708 5.41733L43.2032 7.35256ZM44.5241 7.69702C44.985 7.81016 45.4219 7.96231 45.836 8.15281L46.6718 6.33583C46.139 6.09072 45.5816 5.89723 45.0008 5.75468L44.5241 7.69702ZM45.8435 8.15624C46.219 8.32518 46.5295 8.53614 46.7854 8.78504L48.1798 7.35132C47.7444 6.92788 47.2358 6.58959 46.6643 6.3324L45.8435 8.15624ZM46.7954 8.79465C47.0251 9.01192 47.1939 9.27296 47.3039 9.59328L49.1954 8.94365C48.9835 8.32647 48.6409 7.78732 48.1698 7.34171L46.7954 8.79465ZM47.3039 9.59328C47.3966 9.8634 47.4307 10.2351 47.3424 10.7458L49.3131 11.0866C49.4426 10.3378 49.4246 9.61103 49.1954 8.94365L47.3039 9.59328ZM47.3414 10.7518C47.2281 11.4315 46.9592 12.0158 46.532 12.5247L48.0639 13.8105C48.7257 13.0221 49.1434 12.1055 49.3142 11.0806L47.3414 10.7518ZM46.5316 12.5252C46.1084 13.03 45.5369 13.4451 44.7848 13.7564L45.5498 15.6044C46.559 15.1865 47.4079 14.5931 48.0643 13.81L46.5316 12.5252ZM44.7873 13.7554C44.0562 14.0558 43.1697 14.2202 42.1062 14.2202V16.2202C43.3722 16.2202 44.5265 16.0247 45.5473 15.6054L44.7873 13.7554ZM42.1062 14.2202C41.0775 14.2202 40.275 14.0595 39.6624 13.7831L38.8398 15.6061C39.7801 16.0304 40.8811 16.2202 42.1062 16.2202V14.2202ZM39.667 13.7852C39.0643 13.5096 38.6725 13.1381 38.4282 12.6815L36.6649 13.6253C37.1402 14.5134 37.8848 15.1694 38.8352 15.604L39.667 13.7852ZM38.4308 12.6864C38.1964 12.2426 38.0889 11.647 38.1969 10.835L36.2143 10.5713C36.0667 11.6816 36.1865 12.7195 36.6623 13.6204L38.4308 12.6864ZM37.2056 11.7031H39.7979V9.70312H37.2056V11.7031ZM38.8032 10.6009C38.7342 11.2716 38.8351 11.9367 39.2073 12.5111L40.8858 11.4236C40.8223 11.3256 40.7575 11.1479 40.7927 10.8054L38.8032 10.6009ZM39.2127 12.5193C39.5604 13.0445 40.0517 13.4171 40.6358 13.6494L41.3749 11.791C41.1257 11.6918 40.9778 11.5625 40.8804 11.4153L39.2127 12.5193ZM40.6358 13.6494C41.1932 13.8711 41.806 13.9688 42.4542 13.9688V11.9688C42.0039 11.9688 41.6508 11.9007 41.3749 11.791L40.6358 13.6494ZM42.4542 13.9688C43.1264 13.9688 43.7639 13.8687 44.3544 13.6517L43.6648 11.7744C43.3272 11.8984 42.9278 11.9688 42.4542 11.9688V13.9688ZM44.3628 13.6486C44.9439 13.4292 45.4566 13.1118 45.8696 12.6788L44.4223 11.2984C44.2481 11.481 44.0033 11.6465 43.6564 11.7775L44.3628 13.6486ZM45.8693 12.6791C46.3042 12.2235 46.5814 11.6742 46.6804 11.052L44.7052 10.7378C44.6717 10.9489 44.5843 11.1288 44.4226 11.2982L45.8693 12.6791ZM46.6775 11.0694C46.7782 10.501 46.7111 9.90305 46.3494 9.38496L44.7095 10.5298C44.7103 10.531 44.7135 10.534 44.7165 10.5516C44.7203 10.5732 44.7249 10.6258 44.7082 10.7204L46.6775 11.0694ZM46.3494 9.38496C46.0424 8.94513 45.6047 8.63658 45.1221 8.42003L44.3033 10.2447C44.5594 10.3596 44.6662 10.4677 44.7095 10.5298L46.3494 9.38496ZM45.1362 8.4265C44.7034 8.22412 44.2078 8.05401 43.6591 7.91042L43.1527 9.84527C43.6173 9.96682 43.9929 10.0997 44.2892 10.2383L45.1362 8.4265ZM43.6668 7.91248L42.0901 7.48634L41.5683 9.41707L43.145 9.8432L43.6668 7.91248ZM42.0933 7.48722C41.0652 7.20565 40.3833 6.80925 39.9559 6.35786L38.5037 7.73305C39.2599 8.53166 40.311 9.07276 41.5651 9.41619L42.0933 7.48722ZM39.9586 6.36078C39.6336 6.01477 39.4585 5.52044 39.5916 4.70694L37.6179 4.38397C37.4101 5.6538 37.6517 6.82614 38.5009 7.73013L39.9586 6.36078ZM39.5914 4.70809C39.7031 4.03075 39.9784 3.45629 40.4219 2.96147L38.9325 1.62659C38.2302 2.41019 37.7905 3.33667 37.6181 4.38281L39.5914 4.70809ZM40.4243 2.95874C40.8884 2.43708 41.477 2.02217 42.2102 1.72003L41.4482 -0.129119C40.4579 0.278964 39.6118 0.863113 38.9301 1.62933L40.4243 2.95874ZM42.2145 1.71823C42.943 1.41402 43.7528 1.25568 44.6559 1.25568V-0.744319C43.5135 -0.744319 42.4388 -0.542808 41.4439 -0.127323L42.2145 1.71823ZM44.6559 1.25568C45.5757 1.25568 46.286 1.41637 46.8271 1.68869L47.7262 -0.0977872C46.8374 -0.545159 45.8005 -0.744319 44.6559 -0.744319V1.25568ZM46.8294 1.68988C47.3813 1.96582 47.7407 2.32454 47.9642 2.75878L49.7425 1.84349C49.3031 0.989852 48.6114 0.344784 47.7238 -0.0989734L46.8294 1.68988ZM47.9683 2.76661C48.1915 3.19104 48.2871 3.71601 48.1961 4.39052L50.1782 4.65777C50.3145 3.64668 50.1875 2.68964 49.7384 1.83566L47.9683 2.76661ZM49.1871 3.52415H46.6516V5.52415H49.1871V3.52415ZM56.7693 2.66335L55.783 2.49844L55.5882 3.66335H56.7693V2.66335ZM57.1386 0.454545V-0.545455H56.292L56.1523 0.289632L57.1386 0.454545ZM68.7437 0.454545L69.7301 0.619458L69.9248 -0.545455H68.7437V0.454545ZM68.3744 2.66335V3.66335H69.2211L69.3607 2.82827L68.3744 2.66335ZM63.8787 2.66335V1.66335H63.0308L62.8922 2.49978L63.8787 2.66335ZM61.8332 15V16H62.6811L62.8198 15.1636L61.8332 15ZM59.2196 15L58.2331 14.8364L58.0401 16H59.2196V15ZM61.2651 2.66335L62.2516 2.82692L62.4445 1.66335H61.2651V2.66335ZM57.7556 2.82827L58.1249 0.619458L56.1523 0.289632L55.783 2.49844L57.7556 2.82827ZM57.1386 1.45455H68.7437V-0.545455H57.1386V1.45455ZM67.7574 0.289632L67.3881 2.49844L69.3607 2.82827L69.7301 0.619458L67.7574 0.289632ZM68.3744 1.66335H63.8787V3.66335H68.3744V1.66335ZM62.8922 2.49978L60.8467 14.8364L62.8198 15.1636L64.8652 2.82692L62.8922 2.49978ZM61.8332 14H59.2196V16H61.8332V14ZM60.2061 15.1636L62.2516 2.82692L60.2785 2.49978L58.2331 14.8364L60.2061 15.1636ZM61.2651 1.66335H56.7693V3.66335H61.2651V1.66335ZM82.2978 7.89773L81.3113 7.7338L81.3112 7.73431L82.2978 7.89773ZM80.785 11.8466L79.9624 11.2779L79.9619 11.2787L80.785 11.8466ZM78.0435 14.3395L78.5139 15.222L78.5153 15.2212L78.0435 14.3395ZM71.2182 14.2898L70.6704 15.1264L70.6734 15.1283L71.2182 14.2898ZM69.2012 11.669L68.2598 12.0064L68.261 12.0098L69.2012 11.669ZM68.9881 7.57812L69.9745 7.74252L69.9746 7.74203L68.9881 7.57812ZM70.4938 3.62926L71.3192 4.19382L71.3192 4.19382L70.4938 3.62926ZM73.2424 1.12216L72.7722 0.239593L72.7722 0.239593L73.2424 1.12216ZM80.0748 1.17188L79.523 2.00591L79.528 2.00915L80.0748 1.17188ZM82.0776 3.79261L81.1358 4.12871L81.137 4.13216L82.0776 3.79261ZM79.7054 7.57812L80.6923 7.73983L80.6924 7.739L79.7054 7.57812ZM79.6557 4.85795L78.6917 5.12369L78.6933 5.12941L79.6557 4.85795ZM78.5691 3.18892L77.9809 3.99767L77.9857 4.00115L78.5691 3.18892ZM74.3574 3.23864L74.8624 4.10178L74.8642 4.10072L74.3574 3.23864ZM72.5819 5.02841L71.7321 4.50117L71.7299 4.50488L72.5819 5.02841ZM71.5875 7.89773L72.5725 8.07053L72.5738 8.06297L72.575 8.05539L71.5875 7.89773ZM72.731 12.2798L72.1512 13.0946L72.1561 13.098L72.731 12.2798ZM76.9285 12.223L76.4235 11.3599L76.4235 11.3599L76.9285 12.223ZM78.6969 10.4403L77.8486 9.9108L77.8463 9.91452L78.6969 10.4403ZM81.3112 7.73431C81.0753 9.15856 80.6175 10.3304 79.9624 11.2779L81.6076 12.4152C82.4582 11.1848 83.0089 9.72402 83.2843 8.06114L81.3112 7.73431ZM79.9619 11.2787C79.2972 12.2421 78.5003 12.9609 77.5717 13.4578L78.5153 15.2212C79.7458 14.5628 80.7766 13.6197 81.6081 12.4145L79.9619 11.2787ZM77.5731 13.457C76.6459 13.9513 75.6501 14.1989 74.5705 14.1989V16.1989C75.9719 16.1989 77.2915 15.8735 78.5139 15.2219L77.5731 13.457ZM74.5705 14.1989C73.4282 14.1989 72.5076 13.935 71.7631 13.4512L70.6734 15.1283C71.7944 15.8567 73.1087 16.1989 74.5705 16.1989V14.1989ZM71.766 13.4532C71.0297 12.971 70.4861 12.2794 70.1413 11.3282L68.261 12.0098C68.7401 13.3314 69.5412 14.3869 70.6704 15.1264L71.766 13.4532ZM70.1426 11.3317C69.8091 10.401 69.7283 9.2196 69.9745 7.74252L68.0017 7.41373C67.7176 9.11847 67.7789 10.6643 68.2598 12.0064L70.1426 11.3317ZM69.9746 7.74203C70.2106 6.32167 70.6666 5.14789 71.3192 4.19382L69.6684 3.06471C68.8248 4.29814 68.277 5.75693 68.0016 7.41422L69.9746 7.74203ZM71.3192 4.19382C71.9836 3.22244 72.7816 2.50068 73.7126 2.00472L72.7722 0.239593C71.5346 0.898938 70.5002 1.84858 69.6684 3.06471L71.3192 4.19382ZM73.7126 2.00472C74.6489 1.50587 75.6565 1.25568 76.7509 1.25568V-0.744319C75.3358 -0.744319 74.0044 -0.416857 72.7722 0.239593L73.7126 2.00472ZM76.7509 1.25568C77.8809 1.25568 78.7893 1.52053 79.523 2.00589L80.6265 0.337856C79.5136 -0.398374 78.2061 -0.744319 76.7509 -0.744319V1.25568ZM79.528 2.00915C80.2559 2.48451 80.7948 3.17305 81.1358 4.1287L83.0194 3.45652C82.5461 2.12998 81.7497 1.07136 80.6216 0.334604L79.528 2.00915ZM81.137 4.13216C81.4746 5.06725 81.5574 6.25282 81.3113 7.7338L83.2842 8.06165C83.5685 6.35134 83.5045 4.80018 83.0182 3.45307L81.137 4.13216ZM80.6924 7.739C80.8819 6.57623 80.8792 5.51181 80.6182 4.58649L78.6933 5.12941C78.849 5.68138 78.8793 6.4304 78.7185 7.41725L80.6924 7.739ZM80.6198 4.59222C80.3677 3.67788 79.8933 2.90875 79.1524 2.37669L77.9857 4.00115C78.2866 4.21719 78.5365 4.56075 78.6917 5.12369L80.6198 4.59222ZM79.1573 2.38018C78.4358 1.85549 77.5781 1.62074 76.6444 1.62074V3.62074C77.2353 3.62074 77.6607 3.76478 77.9809 3.99766L79.1573 2.38018ZM76.6444 1.62074C75.6448 1.62074 74.7072 1.87304 73.8507 2.37655L74.8642 4.10072C75.4092 3.78037 75.9962 3.62074 76.6444 3.62074V1.62074ZM73.8525 2.3755C72.9964 2.8763 72.293 3.59732 71.7321 4.50117L73.4316 5.55564C73.8461 4.88752 74.3264 4.41537 74.8624 4.10178L73.8525 2.3755ZM71.7299 4.50488C71.164 5.42586 70.7959 6.51328 70.6001 7.74006L72.575 8.05539C72.739 7.02838 73.0339 6.20293 73.4339 5.55193L71.7299 4.50488ZM70.6026 7.72493C70.3975 8.89416 70.3927 9.96658 70.6627 10.8967L72.5834 10.3391C72.4273 9.80141 72.3988 9.06039 72.5725 8.07053L70.6026 7.72493ZM70.6627 10.8967C70.9265 11.8055 71.4096 12.5668 72.1512 13.0946L73.3109 11.4651C73.0013 11.2448 72.7457 10.8981 72.5834 10.3391L70.6627 10.8967ZM72.1561 13.098C72.8786 13.6057 73.7302 13.8338 74.6557 13.8338V11.8338C74.0661 11.8338 73.6346 11.6926 73.306 11.4616L72.1561 13.098ZM74.6557 13.8338C75.6494 13.8338 76.5817 13.5844 77.4334 13.0862L76.4235 11.3599C75.8832 11.676 75.3003 11.8338 74.6557 11.8338V13.8338ZM77.4334 13.0862C78.289 12.5856 78.9907 11.8669 79.5475 10.9662L77.8463 9.91452C77.4372 10.5763 76.9599 11.046 76.4235 11.3599L77.4334 13.0862ZM79.5452 10.9699C80.1176 10.053 80.4912 8.96695 80.6923 7.73983L78.7186 7.41642C78.5504 8.44309 78.2516 9.26522 77.8486 9.9108L79.5452 10.9699ZM97.9861 7.89773L96.9996 7.7338L96.9995 7.73431L97.9861 7.89773ZM96.4733 11.8466L95.6507 11.2779L95.6502 11.2787L96.4733 11.8466ZM93.7318 14.3395L94.2022 15.222L94.2036 15.2212L93.7318 14.3395ZM86.9065 14.2898L86.3587 15.1264L86.3617 15.1283L86.9065 14.2898ZM84.8895 11.669L83.9481 12.0064L83.9493 12.0098L84.8895 11.669ZM84.6764 7.57812L85.6628 7.74252L85.6629 7.74203L84.6764 7.57812ZM86.1821 3.62926L87.0075 4.19382L87.0075 4.19382L86.1821 3.62926ZM88.9307 1.12216L88.4605 0.239593L88.4605 0.239593L88.9307 1.12216ZM95.7631 1.17188L95.2113 2.00591L95.2163 2.00915L95.7631 1.17188ZM97.7659 3.79261L96.8241 4.12871L96.8253 4.13216L97.7659 3.79261ZM95.3937 7.57812L96.3806 7.73983L96.3807 7.739L95.3937 7.57812ZM95.344 4.85795L94.38 5.12369L94.3816 5.12941L95.344 4.85795ZM94.2574 3.18892L93.6692 3.99767L93.674 4.00115L94.2574 3.18892ZM90.0457 3.23864L90.5507 4.10178L90.5525 4.10072L90.0457 3.23864ZM88.2702 5.02841L87.4204 4.50117L87.4181 4.50488L88.2702 5.02841ZM87.2758 7.89773L88.2608 8.07053L88.2621 8.06297L88.2633 8.05539L87.2758 7.89773ZM88.4193 12.2798L87.8394 13.0946L87.8444 13.098L88.4193 12.2798ZM92.6167 12.223L92.1118 11.3599L92.1118 11.3599L92.6167 12.223ZM94.3852 10.4403L93.5369 9.9108L93.5346 9.91452L94.3852 10.4403ZM96.9995 7.73431C96.7636 9.15856 96.3058 10.3304 95.6507 11.2779L97.2959 12.4152C98.1465 11.1848 98.6972 9.72402 98.9726 8.06114L96.9995 7.73431ZM95.6502 11.2787C94.9855 12.2421 94.1886 12.9609 93.26 13.4578L94.2036 15.2212C95.4341 14.5628 96.4649 13.6197 97.2964 12.4145L95.6502 11.2787ZM93.2614 13.457C92.3342 13.9513 91.3384 14.1989 90.2588 14.1989V16.1989C91.6602 16.1989 92.9798 15.8735 94.2022 15.2219L93.2614 13.457ZM90.2588 14.1989C89.1165 14.1989 88.1959 13.935 87.4514 13.4512L86.3617 15.1283C87.4827 15.8567 88.797 16.1989 90.2588 16.1989V14.1989ZM87.4543 13.4532C86.718 12.971 86.1744 12.2794 85.8296 11.3282L83.9493 12.0098C84.4284 13.3314 85.2295 14.3869 86.3587 15.1264L87.4543 13.4532ZM85.8309 11.3317C85.4974 10.401 85.4166 9.2196 85.6628 7.74252L83.69 7.41373C83.4059 9.11847 83.4672 10.6643 83.9481 12.0064L85.8309 11.3317ZM85.6629 7.74203C85.8989 6.32167 86.3549 5.14789 87.0075 4.19382L85.3567 3.06471C84.5131 4.29814 83.9653 5.75693 83.6899 7.41422L85.6629 7.74203ZM87.0075 4.19382C87.6719 3.22244 88.4699 2.50068 89.4009 2.00472L88.4605 0.239593C87.2229 0.898938 86.1885 1.84858 85.3567 3.06471L87.0075 4.19382ZM89.4009 2.00472C90.3372 1.50587 91.3448 1.25568 92.4392 1.25568V-0.744319C91.0241 -0.744319 89.6927 -0.416857 88.4605 0.239593L89.4009 2.00472ZM92.4392 1.25568C93.5692 1.25568 94.4776 1.52053 95.2113 2.00589L96.3148 0.337856C95.2019 -0.398374 93.8944 -0.744319 92.4392 -0.744319V1.25568ZM95.2163 2.00915C95.9442 2.48451 96.483 3.17305 96.8241 4.1287L98.7077 3.45652C98.2344 2.12998 97.438 1.07136 96.3098 0.334604L95.2163 2.00915ZM96.8253 4.13216C97.1629 5.06725 97.2457 6.25282 96.9996 7.7338L98.9725 8.06165C99.2567 6.35134 99.1928 4.80018 98.7065 3.45307L96.8253 4.13216ZM96.3807 7.739C96.5702 6.57623 96.5675 5.51181 96.3065 4.58649L94.3816 5.12941C94.5373 5.68138 94.5676 6.4304 94.4068 7.41725L96.3807 7.739ZM96.3081 4.59222C96.056 3.67788 95.5816 2.90875 94.8407 2.37669L93.674 4.00115C93.9749 4.21719 94.2248 4.56075 94.38 5.12369L96.3081 4.59222ZM94.8455 2.38018C94.1241 1.85549 93.2664 1.62074 92.3327 1.62074V3.62074C92.9236 3.62074 93.349 3.76478 93.6692 3.99766L94.8455 2.38018ZM92.3327 1.62074C91.3331 1.62074 90.3955 1.87304 89.539 2.37655L90.5525 4.10072C91.0975 3.78037 91.6845 3.62074 92.3327 3.62074V1.62074ZM89.5408 2.3755C88.6847 2.8763 87.9813 3.59732 87.4204 4.50117L89.1199 5.55564C89.5344 4.88752 90.0147 4.41537 90.5507 4.10178L89.5408 2.3755ZM87.4181 4.50488C86.8523 5.42586 86.4842 6.51328 86.2883 7.74006L88.2633 8.05539C88.4273 7.02838 88.7222 6.20293 89.1222 5.55193L87.4181 4.50488ZM86.2909 7.72493C86.0858 8.89416 86.081 9.96658 86.351 10.8967L88.2717 10.3391C88.1156 9.80141 88.0871 9.06039 88.2608 8.07053L86.2909 7.72493ZM86.351 10.8967C86.6148 11.8055 87.0979 12.5668 87.8395 13.0946L88.9992 11.4651C88.6896 11.2448 88.434 10.8981 88.2717 10.3391L86.351 10.8967ZM87.8444 13.098C88.5668 13.6057 89.4185 13.8338 90.344 13.8338V11.8338C89.7544 11.8338 89.3229 11.6926 88.9943 11.4616L87.8444 13.098ZM90.344 13.8338C91.3377 13.8338 92.27 13.5844 93.1217 13.0862L92.1118 11.3599C91.5715 11.676 90.9886 11.8338 90.344 11.8338V13.8338ZM93.1217 13.0862C93.9773 12.5856 94.679 11.8669 95.2358 10.9662L93.5346 9.91452C93.1255 10.5763 92.6482 11.046 92.1118 11.3599L93.1217 13.0862ZM95.2335 10.9699C95.8059 10.053 96.1795 8.96695 96.3806 7.73983L94.4069 7.41642C94.2387 8.44309 93.9399 9.26522 93.5369 9.9108L95.2335 10.9699ZM99.4982 15L98.5117 14.8362L98.3185 16H99.4982V15ZM101.913 0.454545V-0.545455H101.065L100.926 0.290771L101.913 0.454545ZM104.548 0.454545L105.534 0.618115L105.727 -0.545455H104.548V0.454545ZM102.502 12.7912L101.516 12.6276L101.323 13.7912H102.502V12.7912ZM108.909 12.7912L109.895 12.9561L110.09 11.7912H108.909V12.7912ZM108.539 15V16H109.386L109.526 15.1649L108.539 15ZM100.485 15.1638L102.899 0.618319L100.926 0.290771L98.5117 14.8362L100.485 15.1638ZM101.913 1.45455H104.548V-0.545455H101.913V1.45455ZM103.561 0.290975L101.516 12.6276L103.489 12.9548L105.534 0.618115L103.561 0.290975ZM102.502 13.7912H108.909V11.7912H102.502V13.7912ZM107.922 12.6263L107.553 14.8351L109.526 15.1649L109.895 12.9561L107.922 12.6263ZM108.539 14H99.4982V16H108.539V14ZM111.026 15L110.04 14.8362L109.847 16H111.026V15ZM113.441 0.454545V-0.545455H112.593L112.455 0.290771L113.441 0.454545ZM116.076 0.454545L117.063 0.617073L117.254 -0.545455H116.076V0.454545ZM114.975 7.13778L113.989 6.97526L113.797 8.13778H114.975V7.13778ZM115.153 7.13778V8.13778H115.563L115.855 7.84972L115.153 7.13778ZM121.928 0.454545V-0.545455H121.518L121.226 -0.257396L121.928 0.454545ZM125.146 0.454545L125.844 1.17071L127.605 -0.545455H125.146V0.454545ZM118.448 6.98153L117.75 6.26537L117.209 6.79246L117.568 7.45689L118.448 6.98153ZM122.781 15V16H124.458L123.66 14.5246L122.781 15ZM119.613 15L118.728 15.4657L119.009 16H119.613V15ZM116.332 8.7642L117.217 8.29854L116.589 7.10638L115.63 8.05192L116.332 8.7642ZM114.386 10.6818L113.684 9.96953L113.453 10.1969L113.4 10.5164L114.386 10.6818ZM113.661 15V16H114.508L114.648 15.1655L113.661 15ZM112.013 15.1638L114.428 0.618319L112.455 0.290771L110.04 14.8362L112.013 15.1638ZM113.441 1.45455H116.076V-0.545455H113.441V1.45455ZM115.089 0.292017L113.989 6.97526L115.962 7.30031L117.063 0.617073L115.089 0.292017ZM114.975 8.13778H115.153V6.13778H114.975V8.13778ZM115.855 7.84972L122.631 1.16649L121.226 -0.257396L114.451 6.42584L115.855 7.84972ZM121.928 1.45455H125.146V-0.545455H121.928V1.45455ZM124.448 -0.261616L117.75 6.26537L119.146 7.6977L125.844 1.17071L124.448 -0.261616ZM117.568 7.45689L121.901 15.4754L123.66 14.5246L119.328 6.50618L117.568 7.45689ZM122.781 14H119.613V16H122.781V14ZM120.498 14.5343L117.217 8.29854L115.447 9.22987L118.728 15.4657L120.498 14.5343ZM115.63 8.05192L113.684 9.96953L115.088 11.3941L117.034 9.47649L115.63 8.05192ZM113.4 10.5164L112.675 14.8345L114.648 15.1655L115.372 10.8473L113.4 10.5164ZM113.661 14H111.026V16H113.661V14ZM129.811 0.454545L130.798 0.618319L130.991 -0.545455H129.811V0.454545ZM127.396 15V16H128.244L128.383 15.1638L127.396 15ZM124.761 15L123.775 14.8362L123.582 16H124.761V15ZM127.176 0.454545V-0.545455H126.329L126.19 0.290771L127.176 0.454545ZM128.825 0.290771L126.41 14.8362L128.383 15.1638L130.798 0.618319L128.825 0.290771ZM127.396 14H124.761V16H127.396V14ZM125.748 15.1638L128.163 0.618319L126.19 0.290771L123.775 14.8362L125.748 15.1638ZM127.176 1.45455H129.811V-0.545455H127.176V1.45455ZM131.856 2.66335L130.87 2.49844L130.675 3.66335H131.856V2.66335ZM132.225 0.454545V-0.545455H131.379L131.239 0.289632L132.225 0.454545ZM143.83 0.454545L144.817 0.619458L145.012 -0.545455H143.83V0.454545ZM143.461 2.66335V3.66335H144.308L144.447 2.82827L143.461 2.66335ZM138.965 2.66335V1.66335H138.118L137.979 2.49978L138.965 2.66335ZM136.92 15V16H137.768L137.906 15.1636L136.92 15ZM134.306 15L133.32 14.8364L133.127 16H134.306V15ZM136.352 2.66335L137.338 2.82692L137.531 1.66335H136.352V2.66335ZM132.842 2.82827L133.212 0.619458L131.239 0.289632L130.87 2.49844L132.842 2.82827ZM132.225 1.45455H143.83V-0.545455H132.225V1.45455ZM142.844 0.289632L142.475 2.49844L144.447 2.82827L144.817 0.619458L142.844 0.289632ZM143.461 1.66335H138.965V3.66335H143.461V1.66335ZM137.979 2.49978L135.933 14.8364L137.906 15.1636L139.952 2.82692L137.979 2.49978ZM136.92 14H134.306V16H136.92V14ZM135.293 15.1636L137.338 2.82692L135.365 2.49978L133.32 14.8364L135.293 15.1636ZM136.352 1.66335H131.856V3.66335H136.352V1.66335Z" fill="black"/>
</svg>
